# xmcd
#
# Track frame offsets: 
#        225
#        10224
#        19536
#        29939
#        44644
#        57117
#        62438
#        67004
#        77827
#        82468
#        87595
#        111000
#        120308
#        133509
#        147875
#        164444
#        173236
#        189327
#        200752
#        221731
#        229570
#        236985
#        243893
#
# Disc length: 3296 seconds
#
# Revision: 1
# Processed by: cddbd v1.5.2PL0 Copyright (c) Steve Scherf et al.
# Submitted via: ExactAudioCopy v1.0b3
#
DISCID=4e0cdd17
DTITLE=Evan Parker and September Winds - Short Stories
DYEAR=2005
DGENRE=Jazz
TTITLE0=Anton au gare (1)
TTITLE1=Anton au gare (2)
TTITLE2=Horn choir
TTITLE3=Echoes and shadows
TTITLE4=Lower Westside
TTITLE5=Moorhuhnjagd
TTITLE6=No MPs! (1)
TTITLE7=No MPs! (2)
TTITLE8=Foghorns (1)
TTITLE9=Foghorns (2)
TTITLE10=Distant voices
TTITLE11=Insects (Part III)
TTITLE12=Taragotic VI
TTITLE13=Taragotic IV
TTITLE14=Twelve
TTITLE15=Ungeziefer
TTITLE16=Woodbones I-IV
TTITLE17=Blackbone
TTITLE18=Heavy metal I-III
TTITLE19=Anton au gare (3)
TTITLE20=Anton au gare (4)
TTITLE21=Anton au gare (5)
TTITLE22=Fresh ending
EXTD=YEAR: 2005
EXTT0=
EXTT1=
EXTT2=
EXTT3=
EXTT4=
EXTT5=
EXTT6=
EXTT7=
EXTT8=
EXTT9=
EXTT10=
EXTT11=
EXTT12=
EXTT13=
EXTT14=
EXTT15=
EXTT16=
EXTT17=
EXTT18=
EXTT19=
EXTT20=
EXTT21=
EXTT22=
PLAYORDER=
